<?xml version="1.0" encoding="UTF-8"?>
<svg version="1.1" xmlns="http://www.w3.org/2000/svg" width="204" height="192">
<path d="M0 0 C67.32 0 134.64 0 204 0 C204 63.36 204 126.72 204 192 C136.68 192 69.36 192 0 192 C0 128.64 0 65.28 0 0 Z " fill="#FDFDFC" transform="translate(0,0)"/>
<path d="M0 0 C1.04671875 -0.01224609 2.0934375 -0.02449219 3.171875 -0.03710938 C15.07656806 -0.0591551 27.38631354 0.80926118 36.6953125 9.01171875 C43.75855785 16.53304068 45.0886932 24.09402336 45.05859375 34.08203125 C45.0638356 35.11003342 45.06907745 36.13803558 45.07447815 37.19718933 C45.08087441 39.3629771 45.07959257 41.52879973 45.07104492 43.69458008 C45.06255178 46.97997032 45.09130445 50.26360992 45.12304688 53.54882812 C45.12465974 55.66406199 45.12407972 57.77929888 45.12109375 59.89453125 C45.13232773 60.86260208 45.14356171 61.83067291 45.15513611 62.82807922 C45.06992008 71.3156046 43.33312337 79.71290045 37.4375 86.125 C29.81371878 92.86307253 22.0217218 93.75644234 12.14453125 93.65625 C10.38709846 93.66682434 10.38709846 93.66682434 8.59416199 93.6776123 C4.87504923 93.6995526 1.15665818 93.69665989 -2.5625 93.6875 C-7.47304435 93.67545736 -12.38251846 93.68913163 -17.29296875 93.71875 C-18.41495163 93.70743042 -19.53693451 93.69611084 -20.69291687 93.68444824 C-28.22866372 93.73323241 -31.77295355 94.67781371 -37.203125 99.96875 C-37.67234375 100.5359375 -38.1415625 101.103125 -38.625 101.6875 C-39.10453125 102.2546875 -39.5840625 102.821875 -40.078125 103.40625 C-43.00836021 107.4309104 -43.63365431 110.41762483 -43.71875 115.4140625 C-43.76322266 117.2084375 -43.76322266 117.2084375 -43.80859375 119.0390625 C-43.85300203 121.56249758 -43.89727201 124.08593511 -43.94140625 126.609375 C-43.98587891 128.39988281 -43.98587891 128.39988281 -44.03125 130.2265625 C-44.04994141 131.32178223 -44.06863281 132.41700195 -44.08789062 133.54541016 C-44.375 136.1875 -44.375 136.1875 -46.375 138.1875 C-55.9867689 139.58647321 -69.194074 139.97734115 -77.375 134.1875 C-86.95327315 125.87229583 -90.69225688 112.39701298 -91.59667969 100.19726562 C-92.19629429 84.32029104 -92.7487212 66.72645767 -81.375 54.1875 C-72.90826672 45.75326857 -64.15902337 44.95936944 -52.55148315 44.96090698 C-50.75869431 44.97639084 -50.75869431 44.97639084 -48.9296875 44.9921875 C-47.05314987 44.99643234 -47.05314987 44.99643234 -45.13870239 45.00076294 C-41.84748436 45.00999832 -38.55647039 45.02789882 -35.26531982 45.0501709 C-31.89305083 45.07080139 -28.5207517 45.07980105 -25.1484375 45.08984375 C-18.5572133 45.11179607 -11.9661233 45.14519202 -5.375 45.1875 C-5.375 43.5375 -5.375 41.8875 -5.375 40.1875 C-6.54595215 40.19797363 -7.7169043 40.20844727 -8.92333984 40.21923828 C-13.25810705 40.25537497 -17.59286089 40.27837733 -21.92773438 40.29736328 C-23.80568682 40.30743534 -25.68362353 40.32109362 -27.56152344 40.33837891 C-30.2572009 40.36257453 -32.95267146 40.37397083 -35.6484375 40.3828125 C-36.49119232 40.39313507 -37.33394714 40.40345764 -38.20223999 40.41409302 C-40.26121247 40.41449144 -42.31967935 40.31007588 -44.375 40.1875 C-46.75715184 37.80534816 -46.63084331 37.28741069 -46.640625 34.046875 C-46.64449219 32.81130859 -46.64449219 32.81130859 -46.6484375 31.55078125 C-46.64070313 30.68839844 -46.63296875 29.82601563 -46.625 28.9375 C-46.63660156 27.66712891 -46.63660156 27.66712891 -46.6484375 26.37109375 C-46.62330807 18.29198129 -45.09552229 13.17409309 -39.375 7.1875 C-35.90861686 4.8277831 -32.75227439 3.55020219 -28.6875 2.5625 C-27.25857422 2.20285156 -27.25857422 2.20285156 -25.80078125 1.8359375 C-17.23934371 0.21541454 -8.6939668 0.00531416 0 0 Z " fill="#3379B3" transform="translate(99.375,0.8125)"/>
<path d="M0 0 C18.7408025 0.03834435 18.7408025 0.03834435 25.86376953 6.07617188 C30.49972687 10.84734464 32.90657638 16.09247026 34.86376953 22.38085938 C35.16283203 23.25484375 35.46189453 24.12882812 35.77001953 25.02929688 C40.83717235 42.52974133 39.6002115 62.89234663 31.86376953 79.38085938 C30.13539418 82.42246109 28.33137632 84.91325258 25.86376953 87.38085938 C25.18314453 88.16460937 24.50251953 88.94835937 23.80126953 89.75585938 C19.61950125 93.2631489 15.56495259 93.62828264 10.23754883 93.60791016 C9.27085014 93.60834824 9.27085014 93.60834824 8.28462219 93.60879517 C6.16893732 93.60740942 4.05361111 93.59188444 1.93798828 93.57617188 C0.46540011 93.57243905 -1.00719056 93.56959335 -2.4797821 93.56759644 C-6.34480719 93.5599812 -10.2096806 93.54035101 -14.074646 93.51818848 C-18.02288766 93.49768446 -21.97115397 93.488585 -25.91943359 93.47851562 C-33.65843483 93.45710297 -41.39731135 93.42299271 -49.13623047 93.38085938 C-49.13623047 95.03085938 -49.13623047 96.68085938 -49.13623047 98.38085938 C-47.93498535 98.37038574 -46.73374023 98.35991211 -45.49609375 98.34912109 C-41.04950935 98.3129865 -36.60293799 98.28998281 -32.15625 98.27099609 C-30.22979553 98.26092355 -28.30335639 98.24726494 -26.37695312 98.22998047 C-23.61177795 98.20578696 -20.84680447 98.19438902 -18.08154297 98.18554688 C-16.78460007 98.17006302 -16.78460007 98.17006302 -15.4614563 98.15426636 C-13.35169526 98.15386831 -11.24242329 98.25820694 -9.13623047 98.38085938 C-6.63045205 100.8866378 -6.84949916 102.47489767 -6.81396484 105.90234375 C-6.81879883 106.97452148 -6.81879883 106.97452148 -6.82373047 108.06835938 C-6.80761719 108.76380859 -6.79150391 109.45925781 -6.77490234 110.17578125 C-6.76818963 117.36510007 -9.04391753 123.1545382 -14.13623047 128.38085938 C-26.26579787 138.89497649 -44.35406088 140.20808414 -59.77636719 139.55566406 C-71.04142797 138.72121512 -82.58016039 136.15085941 -91.13623047 128.38085938 C-95.2057042 123.43588133 -98.24196679 118.98204657 -98.31323242 112.52319336 C-98.32606766 111.51131454 -98.33890289 110.49943573 -98.35212708 109.45689392 C-98.36320747 107.80857323 -98.36320747 107.80857323 -98.37451172 106.12695312 C-98.38258347 104.99693375 -98.39065521 103.86691437 -98.39897156 102.70265198 C-98.41282479 100.30430643 -98.42354138 97.90594106 -98.43139648 95.50756836 C-98.44854646 91.85752273 -98.49241547 88.20839752 -98.53662109 84.55859375 C-98.54675345 82.2272202 -98.55526785 79.89583894 -98.56201172 77.56445312 C-98.57951981 76.47974228 -98.59702789 75.39503143 -98.61506653 74.27745056 C-98.59295355 66.46235867 -97.10616822 60.48927327 -92.49560547 54.11132812 C-91.96451172 53.60214844 -91.43341797 53.09296875 -90.88623047 52.56835938 C-90.10505859 51.78525391 -90.10505859 51.78525391 -89.30810547 50.98632812 C-81.97299721 45.56415278 -76.10825805 44.80003396 -67.19091797 44.84179688 C-65.4979509 44.82410751 -65.4979509 44.82410751 -63.77078247 44.80606079 C-60.18412325 44.77092027 -56.5980475 44.76164223 -53.01123047 44.75585938 C-49.41744763 44.73949117 -45.8239231 44.71741172 -42.23025513 44.68423462 C-39.9999151 44.66467845 -37.7694568 44.6552617 -35.53903198 44.65731812 C-28.23876905 44.60725727 -22.25612885 44.16168195 -16.57861328 39.02929688 C-10.17995442 31.7165439 -9.42131941 23.73351257 -9.44873047 14.38085938 C-9.43220815 12.15161666 -9.40788079 9.92241356 -9.37451172 7.69335938 C-9.37491455 6.72011719 -9.37531738 5.746875 -9.37573242 4.74414062 C-8.81081752 -0.83014709 -4.45137185 0.07409557 0 0 Z " fill="#FEC91C" transform="translate(158.13623046875,51.619140625)"/>
<path d="M0 0 C18.7408025 0.03834435 18.7408025 0.03834435 25.86376953 6.07617188 C30.49972687 10.84734464 32.90657638 16.09247026 34.86376953 22.38085938 C35.16283203 23.25484375 35.46189453 24.12882812 35.77001953 25.02929688 C40.83717235 42.52974133 39.6002115 62.89234663 31.86376953 79.38085938 C30.13539418 82.42246109 28.33137632 84.91325258 25.86376953 87.38085938 C25.18314453 88.16460937 24.50251953 88.94835937 23.80126953 89.75585938 C19.61950125 93.2631489 15.56495259 93.62828264 10.23754883 93.60791016 C9.27085014 93.60834824 9.27085014 93.60834824 8.28462219 93.60879517 C6.16893732 93.60740942 4.05361111 93.59188444 1.93798828 93.57617188 C0.46540011 93.57243905 -1.00719056 93.56959335 -2.4797821 93.56759644 C-6.34480719 93.5599812 -10.2096806 93.54035101 -14.074646 93.51818848 C-18.02288766 93.49768446 -21.97115397 93.488585 -25.91943359 93.47851562 C-33.65843483 93.45710297 -41.39731135 93.42299271 -49.13623047 93.38085938 C-49.13623047 95.03085938 -49.13623047 96.68085938 -49.13623047 98.38085938 C-47.93498535 98.37038574 -46.73374023 98.35991211 -45.49609375 98.34912109 C-41.04950935 98.3129865 -36.60293799 98.28998281 -32.15625 98.27099609 C-30.22979553 98.26092355 -28.30335639 98.24726494 -26.37695312 98.22998047 C-23.61177795 98.20578696 -20.84680447 98.19438902 -18.08154297 98.18554688 C-16.78460007 98.17006302 -16.78460007 98.17006302 -15.4614563 98.15426636 C-13.35169526 98.15386831 -11.24242329 98.25820694 -9.13623047 98.38085938 C-6.63045205 100.8866378 -6.84949916 102.47489767 -6.81396484 105.90234375 C-6.81879883 106.97452148 -6.81879883 106.97452148 -6.82373047 108.06835938 C-6.80761719 108.76380859 -6.79150391 109.45925781 -6.77490234 110.17578125 C-6.76818963 117.36510007 -9.04391753 123.1545382 -14.13623047 128.38085938 C-26.26579787 138.89497649 -44.35406088 140.20808414 -59.77636719 139.55566406 C-71.04142797 138.72121512 -82.58016039 136.15085941 -91.13623047 128.38085938 C-95.2057042 123.43588133 -98.24196679 118.98204657 -98.31323242 112.52319336 C-98.32606766 111.51131454 -98.33890289 110.49943573 -98.35212708 109.45689392 C-98.36320747 107.80857323 -98.36320747 107.80857323 -98.37451172 106.12695312 C-98.38258347 104.99693375 -98.39065521 103.86691437 -98.39897156 102.70265198 C-98.41282479 100.30430643 -98.42354138 97.90594106 -98.43139648 95.50756836 C-98.44854646 91.85752273 -98.49241547 88.20839752 -98.53662109 84.55859375 C-98.54675345 82.2272202 -98.55526785 79.89583894 -98.56201172 77.56445312 C-98.57951981 76.47974228 -98.59702789 75.39503143 -98.61506653 74.27745056 C-98.59295355 66.46235867 -97.10616822 60.48927327 -92.49560547 54.11132812 C-91.96451172 53.60214844 -91.43341797 53.09296875 -90.88623047 52.56835938 C-90.10505859 51.78525391 -90.10505859 51.78525391 -89.30810547 50.98632812 C-81.97299721 45.56415278 -76.10825805 44.80003396 -67.19091797 44.84179688 C-65.4979509 44.82410751 -65.4979509 44.82410751 -63.77078247 44.80606079 C-60.18412325 44.77092027 -56.5980475 44.76164223 -53.01123047 44.75585938 C-49.41744763 44.73949117 -45.8239231 44.71741172 -42.23025513 44.68423462 C-39.9999151 44.66467845 -37.7694568 44.6552617 -35.53903198 44.65731812 C-28.23876905 44.60725727 -22.25612885 44.16168195 -16.57861328 39.02929688 C-10.17995442 31.7165439 -9.42131941 23.73351257 -9.44873047 14.38085938 C-9.43220815 12.15161666 -9.40788079 9.92241356 -9.37451172 7.69335938 C-9.37491455 6.72011719 -9.37531738 5.746875 -9.37573242 4.74414062 C-8.81081752 -0.83014709 -4.45137185 0.07409557 0 0 Z M-1.13623047 8.38085938 C-1.12720703 9.6621875 -1.11818359 10.94351563 -1.10888672 12.26367188 C-1.23775554 24.92595408 -2.5637177 34.79224385 -11.13232422 44.68554688 C-18.80675141 51.89621725 -25.95267687 52.80904276 -36.13232422 52.75195312 C-38.48844548 52.76933281 -40.84456524 52.78691722 -43.20068359 52.8046875 C-46.89154819 52.81475908 -50.58231558 52.81835541 -54.27319336 52.81665039 C-57.85152794 52.82022896 -61.42912193 52.84760007 -65.00732422 52.87695312 C-66.10338486 52.8687706 -67.1994455 52.86058807 -68.32872009 52.85215759 C-74.67994592 52.91356809 -80.05121181 53.27760311 -85.13623047 57.38085938 C-90.65100028 63.12833663 -90.91094708 69.36229184 -90.90576172 77.00195312 C-90.91766037 78.10128677 -90.92955902 79.20062042 -90.94181824 80.33326721 C-90.9583012 82.64863608 -90.96174846 84.96413046 -90.95288086 87.27954102 C-90.9487453 90.80571216 -91.01389818 94.32617004 -91.08349609 97.8515625 C-91.09097684 100.110016 -91.09436764 102.36848751 -91.09326172 104.62695312 C-91.11886673 105.67096786 -91.14447174 106.7149826 -91.17085266 107.79063416 C-91.06001307 114.88699057 -89.25221618 118.49169997 -84.32865906 123.58729553 C-80.61424779 126.62595038 -76.71731202 128.10323879 -72.13623047 129.38085938 C-71.05148438 129.71537109 -71.05148438 129.71537109 -69.94482422 130.05664062 C-54.20845069 134.07967873 -35.3509296 132.31182014 -21.39013672 124.04101562 C-17.84109498 121.42690342 -16.68897662 119.54504224 -15.13623047 115.38085938 C-14.80623047 112.41085938 -14.47623047 109.44085938 -14.13623047 106.38085938 C-34.43123047 105.88585937 -34.43123047 105.88585937 -55.13623047 105.38085938 C-55.13623047 87.38085938 -55.13623047 87.38085938 -54.13623047 86.38085938 C-52.04638166 86.26747498 -49.95271888 86.22399395 -47.85986328 86.20727539 C-47.20450592 86.20058838 -46.54914856 86.19390137 -45.87393188 86.18701172 C-44.44597507 86.17292998 -43.01799533 86.16104596 -41.59000397 86.15106392 C-39.32853449 86.13468726 -37.06723353 86.1114487 -34.80584717 86.08616638 C-28.37439349 86.0153152 -21.94286892 85.95537673 -15.51123047 85.90405273 C-11.58072391 85.87220477 -7.65040715 85.83090797 -3.72005463 85.78385735 C-2.22261737 85.76786415 -0.72513633 85.7555302 0.77236176 85.74695015 C2.87171091 85.73475359 4.97061706 85.71058426 7.06982422 85.68383789 C8.86066437 85.66837669 8.86066437 85.66837669 10.68768311 85.65260315 C15.26802105 85.26071258 17.95295521 84.20059226 21.36376953 81.13085938 C30.89595226 68.85364934 31.02564689 50.21063944 29.86376953 35.38085938 C28.5259373 26.45019076 26.10045797 17.21405367 19.23876953 11.00585938 C15.01747637 8.11760616 11.72251618 8.26241058 6.73876953 8.31835938 C5.60761719 8.32512695 5.60761719 8.32512695 4.45361328 8.33203125 C2.59029827 8.34382438 0.72702398 8.36175996 -1.13623047 8.38085938 Z " fill="#C09918" transform="translate(158.13623046875,51.619140625)"/>
<path d="M0 0 C1.04671875 -0.01224609 2.0934375 -0.02449219 3.171875 -0.03710938 C15.07656806 -0.0591551 27.38631354 0.80926118 36.6953125 9.01171875 C43.75855785 16.53304068 45.0886932 24.09402336 45.05859375 34.08203125 C45.0638356 35.11003342 45.06907745 36.13803558 45.07447815 37.19718933 C45.08087441 39.3629771 45.07959257 41.52879973 45.07104492 43.69458008 C45.06255178 46.97997032 45.09130445 50.26360992 45.12304688 53.54882812 C45.12465974 55.66406199 45.12407972 57.77929888 45.12109375 59.89453125 C45.13232773 60.86260208 45.14356171 61.83067291 45.15513611 62.82807922 C45.06992008 71.3156046 43.33312337 79.71290045 37.4375 86.125 C29.81371878 92.86307253 22.0217218 93.75644234 12.14453125 93.65625 C10.38709846 93.66682434 10.38709846 93.66682434 8.59416199 93.6776123 C4.87504923 93.6995526 1.15665818 93.69665989 -2.5625 93.6875 C-7.47304435 93.67545736 -12.38251846 93.68913163 -17.29296875 93.71875 C-18.41495163 93.70743042 -19.53693451 93.69611084 -20.69291687 93.68444824 C-28.22866372 93.73323241 -31.77295355 94.67781371 -37.203125 99.96875 C-37.67234375 100.5359375 -38.1415625 101.103125 -38.625 101.6875 C-39.10453125 102.2546875 -39.5840625 102.821875 -40.078125 103.40625 C-43.00836021 107.4309104 -43.63365431 110.41762483 -43.71875 115.4140625 C-43.76322266 117.2084375 -43.76322266 117.2084375 -43.80859375 119.0390625 C-43.85300203 121.56249758 -43.89727201 124.08593511 -43.94140625 126.609375 C-43.98587891 128.39988281 -43.98587891 128.39988281 -44.03125 130.2265625 C-44.04994141 131.32178223 -44.06863281 132.41700195 -44.08789062 133.54541016 C-44.375 136.1875 -44.375 136.1875 -46.375 138.1875 C-55.9867689 139.58647321 -69.194074 139.97734115 -77.375 134.1875 C-86.95327315 125.87229583 -90.69225688 112.39701298 -91.59667969 100.19726562 C-92.19629429 84.32029104 -92.7487212 66.72645767 -81.375 54.1875 C-72.90826672 45.75326857 -64.15902337 44.95936944 -52.55148315 44.96090698 C-50.75869431 44.97639084 -50.75869431 44.97639084 -48.9296875 44.9921875 C-47.05314987 44.99643234 -47.05314987 44.99643234 -45.13870239 45.00076294 C-41.84748436 45.00999832 -38.55647039 45.02789882 -35.26531982 45.0501709 C-31.89305083 45.07080139 -28.5207517 45.07980105 -25.1484375 45.08984375 C-18.5572133 45.11179607 -11.9661233 45.14519202 -5.375 45.1875 C-5.375 43.5375 -5.375 41.8875 -5.375 40.1875 C-6.54595215 40.19797363 -7.7169043 40.20844727 -8.92333984 40.21923828 C-13.25810705 40.25537497 -17.59286089 40.27837733 -21.92773438 40.29736328 C-23.80568682 40.30743534 -25.68362353 40.32109362 -27.56152344 40.33837891 C-30.2572009 40.36257453 -32.95267146 40.37397083 -35.6484375 40.3828125 C-36.49119232 40.39313507 -37.33394714 40.40345764 -38.20223999 40.41409302 C-40.26121247 40.41449144 -42.31967935 40.31007588 -44.375 40.1875 C-46.75715184 37.80534816 -46.63084331 37.28741069 -46.640625 34.046875 C-46.64449219 32.81130859 -46.64449219 32.81130859 -46.6484375 31.55078125 C-46.64070313 30.68839844 -46.63296875 29.82601563 -46.625 28.9375 C-46.63660156 27.66712891 -46.63660156 27.66712891 -46.6484375 26.37109375 C-46.62330807 18.29198129 -45.09552229 13.17409309 -39.375 7.1875 C-35.90861686 4.8277831 -32.75227439 3.55020219 -28.6875 2.5625 C-27.25857422 2.20285156 -27.25857422 2.20285156 -25.80078125 1.8359375 C-17.23934371 0.21541454 -8.6939668 0.00531416 0 0 Z M-36.375 15.1875 C-39.52703677 20.92466045 -39.375 25.52884386 -39.375 32.1875 C-25.515 32.5175 -11.655 32.8475 2.625 33.1875 C2.295 39.1275 1.965 45.0675 1.625 51.1875 C-1.12564576 52.56282288 -3.33153582 52.31220331 -6.41015625 52.31347656 C-7.67907715 52.31728333 -8.94799805 52.32109009 -10.25537109 52.32501221 C-11.27664093 52.325303 -11.27664093 52.325303 -12.31854248 52.32559967 C-15.18929003 52.32902097 -18.05981231 52.35040123 -20.93048096 52.37083054 C-26.27350644 52.40877091 -31.61629708 52.44012812 -36.95947266 52.43798828 C-40.67741721 52.43719584 -44.39454369 52.46079595 -48.11227417 52.4998703 C-49.52184357 52.5102586 -50.93150826 52.51190769 -52.34109497 52.50421906 C-60.64489 52.46348254 -68.69806196 52.6250119 -75.375 58.1875 C-76.18345489 60.26772342 -76.18345489 60.26772342 -76.375 62.1875 C-77.035 62.1875 -77.695 62.1875 -78.375 62.1875 C-85.64069239 79.46997219 -86.95989809 100.22525478 -79.8984375 117.87890625 C-77.16218542 122.97033421 -74.37747079 127.52563038 -68.83984375 129.71875 C-63.40234699 130.75282228 -57.87773223 130.46572803 -52.375 130.1875 C-52.37612793 129.61418945 -52.37725586 129.04087891 -52.37841797 128.45019531 C-52.3164293 115.01213071 -51.87411429 104.79621917 -42.8125 94.1875 C-41.6059375 93.1975 -41.6059375 93.1975 -40.375 92.1875 C-39.55 91.465625 -38.725 90.74375 -37.875 90 C-33.63414345 86.925379 -30.06251754 85.93904658 -24.85375977 85.93212891 C-23.23166344 85.92169052 -23.23166344 85.92169052 -21.57679749 85.91104126 C-19.83915382 85.91253677 -19.83915382 85.91253677 -18.06640625 85.9140625 C-15.60351105 85.89377695 -13.14062046 85.87292623 -10.67773438 85.8515625 C-6.80228788 85.82894651 -2.92702317 85.8124842 0.94848633 85.80664062 C4.69385464 85.79712193 8.43840795 85.76335471 12.18359375 85.7265625 C13.33999863 85.73160797 14.4964035 85.73665344 15.68785095 85.74185181 C23.17590947 85.65027836 26.86021073 84.84497936 32.26953125 79.58984375 C35.52333858 75.50898172 36.73994597 72.74572897 36.80200195 67.58349609 C36.81483719 66.65177582 36.82767242 65.72005554 36.84089661 64.76010132 C36.84828354 63.75387726 36.85567047 62.7476532 36.86328125 61.7109375 C36.87538887 60.15120712 36.87538887 60.15120712 36.88774109 58.55996704 C36.90157873 56.35591293 36.91230231 54.15183742 36.92016602 51.94775391 C36.93732714 48.59625878 36.98121103 45.24576347 37.02539062 41.89453125 C37.03552247 39.75000723 37.04403703 37.60547485 37.05078125 35.4609375 C37.07704338 33.96981949 37.07704338 33.96981949 37.10383606 32.44857788 C37.08383066 25.9480269 36.01903975 20.80135857 32.625 15.1875 C30.67497457 13.21642545 30.67497457 13.21642545 28.375 12.25 C27.66859375 11.89035156 26.9621875 11.53070313 26.234375 11.16015625 C17.99755066 8.08984299 10.26623274 7.84575472 1.58154297 7.87182617 C-0.60630787 7.87497311 -2.79278558 7.85151849 -4.98046875 7.82617188 C-15.6642755 7.77834354 -27.73245059 8.19990686 -36.375 15.1875 Z " fill="#285D88" transform="translate(99.375,0.8125)"/>
<path d="M0 0 C4.93731454 1.46290801 4.93731454 1.46290801 6.375 4 C7.02841537 8.41055377 6.88818284 10.2906002 4.25 13.9375 C1.375 16 1.375 16 -1.75 16.5 C-4.625 16 -4.625 16 -6.4375 15 C-8.33567988 11.80306546 -8.97054605 8.70742117 -8.625 5 C-6.01410988 1.0020745 -4.81810034 0 0 0 Z " fill="#FEFAF0" transform="translate(126.625,162)"/>
<path d="M0 0 C2.4375 1.5 2.4375 1.5 4 4 C4.57853498 6.96424623 4.39353376 8.90092167 4 12 C1.73077752 14.90460477 0.15004537 14.97856495 -3.5 15.5 C-7 15 -7 15 -9.5 12.9375 C-11.45640324 9.10621033 -11.13891039 7.1000774 -10 3 C-7.67133148 -1.01048467 -4.26353269 -0.52359173 0 0 Z " fill="#F5F7FA" transform="translate(78,14)"/>
</svg>
