<?xml version="1.0" standalone="no"?>
<!DOCTYPE svg PUBLIC "-//W3C//DTD SVG 20010904//EN"
 "http://www.w3.org/TR/2001/REC-SVG-20010904/DTD/svg10.dtd">
<svg version="1.0" xmlns="http://www.w3.org/2000/svg"
 width="720.000000pt" height="394.000000pt" viewBox="0 0 720.000000 394.000000"
 preserveAspectRatio="xMidYMid meet">

<g transform="translate(0.000000,394.000000) scale(0.100000,-0.100000)"
fill="#000000" stroke="none">
<path d="M1167 2356 c-104 -29 -163 -116 -152 -221 10 -88 59 -138 215 -221
79 -42 130 -94 130 -131 0 -45 -28 -73 -72 -75 -55 -2 -78 23 -78 84 l0 48
-101 0 -102 0 6 -65 c7 -89 39 -138 115 -173 49 -23 71 -26 153 -27 87 0 101
3 154 30 79 40 108 94 107 195 0 56 -5 78 -25 113 -28 47 -52 66 -200 151 -94
55 -117 79 -117 122 0 26 38 54 73 54 43 0 67 -26 67 -73 l0 -37 95 0 95 0 0
39 c0 125 -77 190 -234 197 -49 2 -100 -1 -129 -10z"/>
<path d="M3623 2360 c-138 -21 -214 -128 -181 -257 14 -57 69 -115 148 -157
96 -51 160 -98 176 -128 26 -51 -6 -108 -61 -108 -49 0 -75 27 -79 80 -2 25
-4 48 -5 53 -1 4 -44 7 -97 7 l-97 0 5 -68 c6 -85 34 -131 103 -169 46 -26 58
-28 160 -28 134 0 190 21 232 88 31 49 42 153 24 210 -17 50 -80 104 -199 171
-56 31 -108 67 -117 79 -34 48 -6 107 51 107 45 0 74 -29 74 -75 l0 -35 90 0
90 0 0 50 c0 31 -8 66 -20 90 -36 71 -166 110 -297 90z"/>
<path d="M5867 2360 c-68 -12 -128 -50 -157 -102 -24 -42 -25 -50 -28 -255 -4
-250 5 -301 63 -352 97 -85 318 -81 406 8 48 48 59 91 59 239 l0 122 -130 0
-130 0 0 -55 0 -55 35 0 35 0 0 -75 c0 -62 -4 -79 -20 -95 -37 -37 -109 -21
-130 29 -9 23 -11 82 -8 226 5 222 9 235 80 235 51 0 78 -27 78 -80 l0 -40 95
0 95 0 0 28 c-1 47 -20 114 -42 145 -43 61 -186 97 -301 77z"/>
<path d="M1807 2343 c-4 -7 -137 -722 -137 -738 0 -3 44 -5 99 -5 l98 0 6 38
c3 20 24 165 47 322 23 157 45 292 48 300 4 13 5 13 8 0 6 -24 94 -636 94
-649 0 -7 33 -11 100 -11 l100 0 -6 38 c-3 20 -34 188 -68 372 l-62 335 -161
3 c-89 1 -164 -1 -166 -5z"/>
<path d="M2436 2218 c-3 -73 -8 -242 -10 -375 l-5 -243 94 0 95 0 2 338 3 337
54 -290 c29 -159 58 -311 63 -337 l10 -48 92 0 92 0 58 313 c32 171 61 323 66
337 5 15 9 -116 9 -312 l1 -338 94 0 94 0 -4 118 c-2 64 -7 233 -10 375 l-6
258 -149 -2 c-144 -1 -149 -1 -154 -22 -2 -12 -23 -140 -46 -285 -23 -144 -44
-261 -46 -258 -3 3 -93 540 -93 559 0 4 -67 7 -149 7 l-149 0 -6 -132z"/>
<path d="M4134 2336 c-3 -8 -4 -146 -2 -307 4 -324 7 -341 68 -393 86 -72 296
-74 385 -4 15 12 36 40 46 62 17 37 19 71 19 349 l0 307 -90 0 -89 0 -3 -301
-3 -301 -24 -19 c-32 -26 -67 -24 -96 6 l-25 24 0 296 0 295 -90 0 c-68 0 -92
-3 -96 -14z"/>
<path d="M4867 2343 c-4 -3 -7 -170 -7 -370 l0 -363 91 0 91 0 -4 304 c-1 167
-1 303 0 301 3 -3 49 -153 148 -485 19 -63 34 -116 34 -117 0 -2 61 -3 135 -3
l135 0 -2 368 -3 367 -90 0 -90 0 2 -290 3 -290 -40 130 c-22 72 -61 203 -87
293 l-47 162 -131 0 c-72 0 -135 -3 -138 -7z"/>
</g>
</svg>
