<?xml version="1.0" encoding="UTF-8"?>
<svg version="1.1" xmlns="http://www.w3.org/2000/svg" width="204" height="192">
<path d="M0 0 C67.32 0 134.64 0 204 0 C204 63.36 204 126.72 204 192 C136.68 192 69.36 192 0 192 C0 128.64 0 65.28 0 0 Z " fill="#5C6BC0" transform="translate(0,0)"/>
<path d="M0 0 C1.93819437 1.60982283 2.90779333 2.50579257 3.37752342 5.02344227 C3.3786545 5.80193877 3.37978558 6.58043528 3.38095093 7.38252258 C3.3894104 8.2782901 3.39786987 9.17405762 3.40658569 10.0969696 C3.39747665 11.56744499 3.39747665 11.56744499 3.38818359 13.06762695 C3.39606903 14.61927551 3.39606903 14.61927551 3.40411377 16.20227051 C3.41734616 19.63109318 3.40856206 23.05945362 3.3984375 26.48828125 C3.40045776 28.86858713 3.4033688 31.24889241 3.40713501 33.62919617 C3.41156315 38.6235441 3.40511314 43.61773127 3.39111328 48.61206055 C3.37404913 55.01131956 3.3838422 61.41020035 3.40183067 67.80944538 C3.41267893 72.72768494 3.40921685 77.6458351 3.4014473 82.56407738 C3.39944674 84.92316927 3.40189948 87.2822693 3.40888596 89.6413517 C3.41651421 92.94251568 3.40487497 96.24307075 3.38818359 99.54418945 C3.39425629 100.51843369 3.40032898 101.49267792 3.40658569 102.4964447 C3.35033473 108.50907004 2.63644252 112.92994098 -1.42651367 117.66113281 C-6.67110348 122.02159931 -12.39583651 125.38091924 -18.3125 128.75 C-19.37049805 129.35980713 -20.42849609 129.96961426 -21.51855469 130.59790039 C-28.56229844 134.64544859 -35.63778145 138.63740552 -42.76293945 142.54003906 C-43.73880005 143.07516113 -43.73880005 143.07516113 -44.734375 143.62109375 C-45.37126755 143.96194504 -46.0081601 144.30279633 -46.66435242 144.65397644 C-49.06591215 145.99066464 -49.06591215 145.99066464 -51.4510498 147.72840881 C-60.14295433 153.56682557 -67.72011685 154.06621988 -77.796875 154 C-79.40050387 154.00982847 -81.00412278 154.02142049 -82.60772705 154.03466797 C-85.95312805 154.05389307 -89.29722368 154.0471724 -92.64257812 154.02246094 C-96.88414864 153.99385787 -101.12138844 154.03742335 -105.3624382 154.10186768 C-108.67115134 154.14261794 -111.97886405 154.14037972 -115.28775787 154.12646484 C-116.84876058 154.12550574 -118.40984349 154.13801063 -119.97060394 154.16552734 C-131.72175678 154.34211795 -139.48635439 151.52212634 -149.29791164 145.09496593 C-151.78483812 143.49510788 -154.36727159 142.08208361 -156.9609375 140.6640625 C-166.10616675 135.53855137 -175.21664308 130.36376539 -184.1875 124.9375 C-184.92339355 124.49680176 -185.65928711 124.05610352 -186.41748047 123.60205078 C-190.05129285 121.37875965 -193.13285903 119.20793808 -196 116 C-194.51151586 112.00305407 -192.41267392 110.78141507 -188.72265625 108.79296875 C-187.65080078 108.20580078 -186.57894531 107.61863281 -185.47460938 107.01367188 C-184.34861328 106.41103516 -183.22261719 105.80839844 -182.0625 105.1875 C-174.56959941 101.12902992 -167.24296074 96.99822837 -160.14233398 92.27856445 C-158 91 -158 91 -156 91 C-154.73078387 92.62078303 -153.53497379 94.2993213 -152.375 96 C-141.94716314 110.6365494 -128.10183327 119.66992567 -110.4375 123.375 C-91.55717363 126.00881939 -73.60490192 121.96293743 -58 111 C-51.49375188 105.95452108 -45.30073874 100.09194666 -41 93 C-41 92.01 -41 91.02 -41 90 C-42.66675781 89.12988281 -42.66675781 89.12988281 -44.3671875 88.2421875 C-52.3810263 84.04025899 -60.32684756 79.80750337 -68 75 C-68.680625 75.70125 -69.36125 76.4025 -70.0625 77.125 C-71.03809486 78.08696923 -72.01757704 79.04500509 -73 80 C-73.50789063 80.50402344 -74.01578125 81.00804688 -74.5390625 81.52734375 C-81.98806795 88.46445072 -89.88263919 90.65435544 -99.95678711 90.53857422 C-109.68284353 90.08128297 -117.7262895 86.48501653 -124.3125 79.25390625 C-131.1853028 70.07425992 -132.88708268 61.28421351 -132 50 C-130.01342935 40.64432605 -123.8995364 33.6170107 -116.34375 28.0390625 C-107.19017589 22.68271281 -97.23653355 22.53739811 -87.04296875 24.59765625 C-79.21325876 27.24866042 -73.72026246 33.27973754 -68 39 C-67.35039307 38.63237549 -66.70078613 38.26475098 -66.03149414 37.88598633 C-63.04203251 36.19446501 -60.05226822 34.50347934 -57.0625 32.8125 C-56.04091797 32.23435547 -55.01933594 31.65621094 -53.96679688 31.06054688 C-49.48349248 28.52525973 -44.99884913 25.9943164 -40.48828125 23.5078125 C-33.94184673 19.8802456 -27.51010166 16.0525948 -21.05859375 12.25976562 C-15.12133776 8.78179557 -9.14485736 5.40839861 -3.07763672 2.16186523 C-1.07481818 1.16549437 -1.07481818 1.16549437 0 0 Z " fill="#3848AB" transform="translate(200,39)"/>
<path d="M0 0 C6.18638764 5.14193258 11.88401371 10.57938208 16.0625 17.5 C15.90405273 19.57275391 15.90405273 19.57275391 15.0625 21.5 C13.54711914 22.68505859 13.54711914 22.68505859 11.59765625 23.6484375 C10.52729126 24.19286499 10.52729126 24.19286499 9.43530273 24.74829102 C8.67290283 25.12010498 7.91050293 25.49191895 7.125 25.875 C5.57443007 26.66061126 4.02494601 27.44836945 2.4765625 28.23828125 C1.34395996 28.8118335 1.34395996 28.8118335 0.18847656 29.39697266 C-3.97573718 31.55750523 -7.96395066 34.01042977 -11.9375 36.5 C-12.618125 35.79875 -13.29875 35.0975 -14 34.375 C-14.97559486 33.41303077 -15.95507704 32.45499491 -16.9375 31.5 C-17.44539063 30.99597656 -17.95328125 30.49195313 -18.4765625 29.97265625 C-26.14179461 22.8341818 -34.27622841 20.80883243 -44.53637695 20.89331055 C-53.86880212 21.32894099 -60.96097812 25.05957464 -67.4375 31.75 C-73.50069577 39.32899472 -75.68415049 46.56943282 -75.30859375 56.265625 C-74.14540999 66.40368981 -69.76838326 73.95267505 -61.9375 80.5 C-52.63230114 86.49638359 -41.64438912 87.15662103 -31.01171875 84.87109375 C-23.12842065 82.13707279 -17.70897275 76.27351394 -11.9375 70.5 C-10.27074219 71.49580078 -10.27074219 71.49580078 -8.5703125 72.51171875 C-7.0681121 73.40432569 -5.56547949 74.29620552 -4.0625 75.1875 C-3.2890625 75.64721191 -2.515625 76.10692383 -1.71875 76.58056641 C3.19501138 79.47602906 8.12703297 82.11552597 13.375 84.3671875 C15.0625 85.5 15.0625 85.5 15.99609375 87.3671875 C16.13712474 91.8967712 11.89108037 95.27722952 9.0625 98.5 C8.47082031 99.18707031 7.87914062 99.87414062 7.26953125 100.58203125 C-4.33569862 113.12755693 -21.50684653 120.37444127 -38.38671875 121.7890625 C-56.46695848 122.23448834 -73.55292202 116.81007434 -86.9375 104.5 C-87.64519531 103.87222656 -88.35289063 103.24445313 -89.08203125 102.59765625 C-100.38433341 92.03011178 -108.63723302 76.53355627 -109.26171875 60.9609375 C-109.64461818 39.71001926 -106.48840682 23.66139554 -91.9375 7.5 C-91.34582031 6.80390625 -90.75414063 6.1078125 -90.14453125 5.390625 C-66.75741942 -20.34018461 -26.58479989 -19.98350668 0 0 Z " fill="#FCFCFD" transform="translate(143.9375,42.5)"/>
<path d="M0 0 C1.26921613 1.62078303 2.46502621 3.2993213 3.625 5 C14.05283686 19.6365494 27.89816673 28.66992567 45.5625 32.375 C64.45037652 35.00987264 82.38633636 30.95730456 98 20 C105.43974711 14.27307602 111.27378551 7.39981825 117 0 C123.16803202 3.49945398 129.33171225 7.00333516 135.43359375 10.6171875 C136.17295166 11.05498535 136.91230957 11.4927832 137.67407227 11.94384766 C139.10438062 12.79267181 140.53333486 13.64378335 141.96069336 14.49755859 C146.54644127 17.21891698 151.20667926 19.66231785 156 22 C155.13133965 26.56888877 152.6998304 28.42946778 149 31 C145.30790167 33.33219996 141.53877567 35.51673547 137.75 37.6875 C136.68749023 38.30181885 135.62498047 38.9161377 134.53027344 39.54907227 C127.47245933 43.61733887 120.38237811 47.62664517 113.23730469 51.53979492 C112.58665039 51.89662354 111.93599609 52.25345215 111.265625 52.62109375 C110.62872742 52.96195007 109.99182983 53.3028064 109.33563232 53.6539917 C106.9340845 54.99066574 106.9340845 54.99066574 104.5489502 56.72840881 C95.85704567 62.56682557 88.27988315 63.06621988 78.203125 63 C76.59949613 63.00982847 74.99587722 63.02142049 73.39227295 63.03466797 C70.04687195 63.05389307 66.70277632 63.0471724 63.35742188 63.02246094 C59.11585136 62.99385787 54.87861156 63.03742335 50.6375618 63.10186768 C47.32884866 63.14261794 44.02113595 63.14037972 40.71224213 63.12646484 C39.15123942 63.12550574 37.59015651 63.13801063 36.02939606 63.16552734 C24.27824322 63.34211795 16.51364561 60.52212634 6.70208836 54.09496593 C4.21516188 52.49510788 1.63272841 51.08208361 -0.9609375 49.6640625 C-10.10616675 44.53855137 -19.21664308 39.36376539 -28.1875 33.9375 C-29.29134033 33.27645264 -29.29134033 33.27645264 -30.41748047 32.60205078 C-34.05129285 30.37875965 -37.13285903 28.20793808 -40 25 C-38.51151586 21.00305407 -36.41267392 19.78141507 -32.72265625 17.79296875 C-31.65080078 17.20580078 -30.57894531 16.61863281 -29.47460938 16.01367188 C-27.78561523 15.1097168 -27.78561523 15.1097168 -26.0625 14.1875 C-18.56959941 10.12902992 -11.24296074 5.99822837 -4.14233398 1.27856445 C-2 0 -2 0 0 0 Z " fill="#283593" transform="translate(44,130)"/>
<path d="M0 0 C21.12 0 42.24 0 64 0 C64 63.36 64 126.72 64 192 C42.55 192 21.1 192 -1 192 C2.01118476 189.74161143 4.84657773 187.84099248 8.078125 185.9609375 C9.06643311 185.3848877 10.05474121 184.80883789 11.07299805 184.21533203 C12.12140869 183.60802246 13.16981934 183.00071289 14.25 182.375 C15.86612183 181.43503174 15.86612183 181.43503174 17.51489258 180.47607422 C23.54539498 176.97617682 29.59776354 173.52059605 35.6875 170.125 C51.73880499 162.39862108 51.73880499 162.39862108 62 149 C62.09674403 147.54154081 62.13914748 146.07911972 62.14717102 144.61747742 C62.15432632 143.7217099 62.16148163 142.82594238 62.16885376 141.9030304 C62.17154266 140.92271347 62.17423157 139.94239655 62.17700195 138.93237305 C62.18357315 137.89794067 62.19014435 136.8635083 62.19691467 135.79772949 C62.21665132 132.36905853 62.22831042 128.94043136 62.23828125 125.51171875 C62.24235678 124.3414747 62.2464323 123.17123066 62.25063133 121.96552467 C62.27149248 115.77299806 62.28579468 109.58049361 62.29516602 103.38793945 C62.30623744 96.98865456 62.34064609 90.58971672 62.38033772 84.19055462 C62.40646662 79.27233732 62.41485451 74.35420323 62.41844749 69.43592262 C62.42332216 67.07680731 62.43496102 64.71769592 62.45348549 62.3586483 C62.47779942 59.05742135 62.4769258 55.75709939 62.4699707 52.45581055 C62.48918579 50.9944442 62.48918579 50.9944442 62.50878906 49.5035553 C62.46511901 43.81682109 61.83961643 40.49133876 58 36 C54.86160023 33.18404504 51.53442339 31.01122312 47.89453125 28.8984375 C46.91959717 28.33068604 45.94466309 27.76293457 44.94018555 27.17797852 C43.90804932 26.58299561 42.87591309 25.9880127 41.8125 25.375 C40.74620361 24.75616943 39.67990723 24.13733887 38.58129883 23.49975586 C32.15531453 19.78233573 25.69241376 16.13967371 19.1875 12.5625 C5.93131817 5.27211684 5.93131817 5.27211684 0 1 C0 0.67 0 0.34 0 0 Z " fill="#FAFBFD" transform="translate(140,0)"/>
<path d="M0 0 C21.12 0 42.24 0 64 0 C61.01472546 2.98527454 58.08973405 4.76660642 54.4375 6.75 C53.00440454 7.54281963 51.57217774 8.33721064 50.140625 9.1328125 C49.33689453 9.57915039 48.53316406 10.02548828 47.70507812 10.48535156 C42.34120554 13.48873293 37.01520694 16.55807216 31.6875 19.625 C30.60331787 20.24600586 29.51913574 20.86701172 28.40209961 21.50683594 C25.25636828 23.31864674 22.12660977 25.1554248 19 27 C18.00049316 27.57331055 17.00098633 28.14662109 15.97119141 28.73730469 C15.01776855 29.30610352 14.0643457 29.87490234 13.08203125 30.4609375 C12.24518799 30.95126465 11.40834473 31.4415918 10.54614258 31.94677734 C6.39363761 35.29537901 2.66476009 39.08335586 1.44793224 44.42220497 C1.24402413 47.17642618 1.22286564 49.87387059 1.27124023 52.63525391 C1.2655452 53.67041641 1.25985016 54.70557892 1.25398254 55.77210999 C1.24291974 59.17430043 1.27487663 62.57454457 1.30859375 65.9765625 C1.31217282 68.34971898 1.31352786 70.72287976 1.3127594 73.09603882 C1.31744333 78.06071724 1.3422311 83.02474343 1.38256836 87.98925781 C1.43359281 94.34918526 1.44500915 100.70839806 1.44273281 107.06850624 C1.4435489 111.96533006 1.46000731 116.86199804 1.48173714 121.75876999 C1.49127403 124.10389401 1.49719395 126.44903565 1.49941826 128.79417801 C1.5059308 132.07093591 1.53220764 135.34693968 1.56420898 138.62353516 C1.56284943 139.58992416 1.56148987 140.55631317 1.56008911 141.55198669 C1.63467093 146.78060967 2.05533173 150.49189983 5 155 C9.19900521 159.01643976 13.85093038 161.87198296 18.875 164.75 C19.98548706 165.39461182 19.98548706 165.39461182 21.1184082 166.05224609 C27.42489722 169.70129219 33.7733442 173.27632704 40.1328125 176.83203125 C46.11335209 180.17781927 52.05418533 183.59301172 58 187 C60.33301125 188.33389787 62.66648508 189.66698328 65 191 C65 191.33 65 191.66 65 192 C43.55 192 22.1 192 0 192 C0 128.64 0 65.28 0 0 Z " fill="#FBFBFD" transform="translate(0,0)"/>
<path d="M0 0 C11.16894693 7.18548292 11.16894693 7.18548292 13.06640625 12.75390625 C13.13988281 13.32109375 13.21335938 13.88828125 13.2890625 14.47265625 C-8.74349733 28.27365557 -8.74349733 28.27365557 -14.7109375 29.47265625 C-14.7109375 30.13265625 -14.7109375 30.79265625 -14.7109375 31.47265625 C-15.71511719 31.95734375 -16.71929687 32.44203125 -17.75390625 32.94140625 C-25.87243229 36.90594316 -33.64053799 41.10465656 -41.234375 46.00390625 C-43.7109375 47.47265625 -43.7109375 47.47265625 -45.7109375 47.47265625 C-50.00367781 37.90981066 -51.72715508 28.43940424 -48.2734375 18.28515625 C-44.09270851 9.32645127 -37.15051876 2.52122735 -28.15625 -1.52734375 C-19.23876684 -4.11563818 -8.4710305 -4.06085483 0 0 Z " fill="#5C6BC0" transform="translate(117.7109375,65.52734375)"/>
<path d="M0 0 C2.03593976 1.47943119 4.05538025 2.98169908 6.0625 4.5 C8.77632736 6.20811093 11.54419756 7.81963973 14.3125 9.4375 C15.61057979 10.21544111 16.90756152 10.99521922 18.203125 11.77734375 C19.14671875 12.34582031 20.0903125 12.91429688 21.0625 13.5 C20.4307538 19.08852404 17.81633996 21.16011937 13.6328125 24.62890625 C5.02293245 30.89658489 -4.57079919 31.92027449 -14.9375 30.5 C-23.28812124 28.42667642 -29.69795591 24.36164953 -34.9375 17.5 C-35.2675 16.51 -35.5975 15.52 -35.9375 14.5 C-31.36806423 11.55063691 -26.76700171 8.66633017 -22.11816406 5.84375 C-20.11297777 4.6081314 -18.14795055 3.32440833 -16.1796875 2.03125 C-10.33093339 -1.60551162 -6.35341158 -3.65596848 0 0 Z " fill="#273493" transform="translate(108.9375,98.5)"/>
</svg>
